<?xml version="1.0" encoding="utf-8"?>
<!-- Generator: Adobe Illustrator 24.3.0, SVG Export Plug-In . SVG Version: 6.00 Build 0)  -->
<svg version="1.1" id="Layer_1" xmlns="http://www.w3.org/2000/svg" xmlns:xlink="http://www.w3.org/1999/xlink" x="0px" y="0px"
	 viewBox="0 0 70 70" style="enable-background:new 0 0 70 70;" xml:space="preserve">
<style type="text/css">
	.st0{fill:url(#SVGID_1_);}
</style>
<g>
	<linearGradient id="SVGID_1_" gradientUnits="userSpaceOnUse" x1="35.55" y1="70.9065" x2="35.55" y2="-1.0589">
		<stop  offset="0" style="stop-color:#fff"/>
		<stop  offset="1" style="stop-color:#fff"/>
	</linearGradient>
	<path class="st0" d="M14.7,3c0.4,0,0.7,0,1.1,0c0.8,0,1.6,0.1,2.5,0.2c0.5,0.1,0.9,0.1,1.4,0.2c0.4,0.1,0.9,0.2,1.3,0.2
		c0.5,0.1,0.9,0.2,1.4,0.3c0.7,0.2,1.4,0.3,2.1,0.6c0.1,0,0.1,0.1,0.2,0.1c0.2,0,0.3,0,0.5-0.1c0.6-0.4,1.2-0.8,1.8-1.1
		c0.4-0.2,0.9-0.4,1.3-0.6c0.8-0.4,1.7-0.6,2.5-0.9c0.6-0.2,1.3-0.3,1.9-0.4c0.4-0.1,0.8-0.1,1.2-0.1c0.9,0,1.8-0.1,2.7,0
		c0.7,0,1.5,0.1,2.2,0.2c0.3,0.1,0.5,0.1,0.8,0.2C39.8,1.9,40,1.9,40.3,2c0.4,0.1,0.8,0.2,1.1,0.3c0.4,0.1,0.8,0.3,1.2,0.5
		c0.2,0,0.4,0.1,0.7,0.2c0.4,0.2,0.9,0.5,1.3,0.7C45.1,4,45.5,4.3,46,4.6c0.1,0.1,0.3,0.1,0.4,0c0.5-0.2,1.1-0.4,1.6-0.5
		c0.9-0.3,1.8-0.5,2.8-0.6c0.6-0.1,1.2-0.2,1.8-0.3c0.2,0,0.5-0.1,0.7-0.1c0.3,0,0.6-0.1,0.9-0.1c1.1,0,2.2-0.1,3.3,0
		c1.2,0,2.3,0.1,3.5,0.4c0.4,0.1,0.8,0.2,1.3,0.3c0.2,0.1,0.4,0.1,0.7,0.2c0.3,0.1,0.7,0.3,1,0.5c0.2,0.1,0.3,0.3,0.3,0.5
		c0.1,0.3,0.2,0.7,0.3,1c0.2,0.9,0.4,1.8,0.5,2.7c0,0.3,0,0.5,0,0.8c0,0.6,0.1,1.2,0,1.9c0,1-0.1,2.1-0.3,3.1
		c-0.1,0.7-0.2,1.4-0.4,2c-0.1,0.4-0.2,0.8-0.3,1.2c0,0.2-0.1,0.4-0.2,0.5v0.1c-0.2,0.6-0.4,1.2-0.7,1.8c-0.2,0.4-0.4,0.9-0.6,1.3
		c-0.3,0.5-0.5,1.1-0.8,1.6c-0.3,0.6-0.7,1.1-1,1.6c-0.2,0.3-0.4,0.7-0.7,1c-0.1,0.2-0.2,0.3-0.4,0.5c-0.5,0.6-0.9,1.2-1.4,1.7
		c-0.6,0.6-1.2,1.2-1.8,1.8c-0.4,0.4-0.8,0.7-1.2,1c-0.8,0.7-1.6,1.3-2.5,1.8c-0.4,0.3-0.8,0.5-1.3,0.7c-0.2,0.1-0.5,0.2-0.8,0.4
		c-0.6,0.3-1.2,0.6-1.9,0.8c-0.4,0.2-0.9,0.3-1.3,0.5c-0.5,0.1-0.9,0.2-1.4,0.3c-0.3,0.1-0.6,0.1-0.8,0.2c-0.1,0-0.2,0-0.2,0.1
		c-0.2,0.1-0.2,0.2-0.1,0.4c0.2,0.4,0.5,0.7,0.8,1c0.5,0.6,1,1.1,1.6,1.6c0.3,0.2,0.6,0.4,0.8,0.6c0.5,0.3,1,0.6,1.5,0.8
		c0.3,0.1,0.3,0.3,0.2,0.6s-0.3,0.7-0.4,1c-0.2,0.5-0.4,1-0.6,1.5c0,0,0,0.1-0.1,0.1c-0.2,0.3-0.3,0.3-0.6,0.2
		c-0.4-0.2-0.8-0.4-1.2-0.7c-0.3-0.2-0.7-0.4-1-0.6c-0.4-0.3-0.8-0.6-1.2-0.9c-0.3-0.3-0.6-0.5-0.9-0.8c-0.4-0.4-0.9-0.9-1.2-1.4
		c-0.1-0.2-0.3-0.4-0.4-0.5l-0.1-0.1c-0.1-0.1-0.2,0-0.3,0.1c0,0.1,0,0.2-0.1,0.3c-0.1,0.6-0.2,1.1-0.3,1.7
		c-0.1,0.7-0.2,1.5-0.3,2.2c0,0.2-0.1,0.4-0.1,0.6c-0.1,0.5-0.2,1.1-0.3,1.6c-0.1,0.7-0.3,1.5-0.5,2.2c-0.2,0.6-0.3,1.3-0.5,1.9
		c-0.2,0.7-0.5,1.3-0.7,1.9c-0.1,0.4-0.3,0.7-0.4,1.1c-0.2,0.5-0.5,1-0.7,1.5c-0.2,0.4-0.4,0.8-0.6,1.2c-0.2,0.4-0.4,0.7-0.7,1
		c-0.3,0.4-0.6,0.9-0.9,1.3c-0.5,0.6-1,1.2-1.5,1.8l-0.1,0.1c-0.4,0.4-0.8,0.8-1.2,1.2c-0.5,0.4-0.9,0.9-1.4,1.3
		c-0.6,0.5-1.2,0.9-1.8,1.4c-0.3,0.2-0.6,0.4-0.9,0.6c-0.5,0.4-1.1,0.6-1.6,1c-0.4,0.3-0.8,0.5-1.2,0.7c-0.5,0.3-0.9,0.5-1.4,0.7
		s-1,0.4-1.4,0.7c-0.1,0-0.2,0.1-0.2,0.1c-0.6,0.2-1.2,0.4-1.7,0.7c-0.7,0.3-1.5,0.5-2.3,0.8c-0.5,0.1-1,0.3-1.5,0.5
		c-0.6,0.2-1.1,0.3-1.7,0.4c-0.2,0.1-0.4,0.1-0.6,0.2c-0.1,0-0.3,0.1-0.4,0.1c-0.3,0-0.4-0.1-0.4-0.4s-0.1-0.6-0.1-0.9
		c-0.1-0.8-0.2-1.6-0.4-2.4c-0.1-0.4-0.1-0.9-0.2-1.3c-0.2-0.7-0.3-1.4-0.5-2.1c-0.2-0.6-0.4-1.2-0.5-1.8c-0.1-0.4,0-0.6,0.4-0.7
		c0.3-0.1,0.5-0.1,0.8-0.2c0.1,0,0.2-0.1,0.3-0.1c0.6-0.1,1.2-0.3,1.8-0.5c0.6-0.2,1.3-0.4,1.9-0.6c0.3-0.1,0.6-0.3,0.9-0.4
		c0.3-0.1,0.7-0.3,1-0.5s0.6-0.3,0.9-0.5c0.1-0.1,0.2-0.1,0.4-0.2c0.5-0.3,1-0.6,1.5-1s1.1-0.9,1.6-1.3c0.1-0.1,0.2-0.2,0.3-0.2
		c0.7-0.7,1.4-1.4,2-2.3c0.4-0.5,0.8-1,1-1.6c0.2-0.4,0.5-0.9,0.7-1.3c0.2-0.6,0.5-1.2,0.7-1.7v-0.1c0.3-1,0.5-2,0.6-3
		c0.1-0.7,0.1-1.4,0.1-2c0-0.7-0.1-1.5-0.2-2.2c-0.1-0.4-0.2-0.9-0.3-1.3c0-0.1-0.1-0.2-0.1-0.3c-0.1-0.1-0.2-0.2-0.3,0
		c-0.1,0.1-0.1,0.1-0.2,0.2c-0.1,0.2-0.2,0.4-0.4,0.6c-0.2,0.3-0.4,0.6-0.7,0.9c-0.4,0.5-0.8,0.9-1.2,1.3c-0.3,0.3-0.7,0.6-1,0.9
		c-0.2,0.2-0.5,0.4-0.7,0.5c-0.1,0.1-0.2,0.1-0.3,0.2c-0.5,0.3-1,0.5-1.4,0.8c-0.1,0.1-0.3,0.1-0.4,0.2c-0.3,0.1-0.5,0-0.6-0.3
		s-0.2-0.6-0.3-0.8c-0.2-0.6-0.4-1.2-0.6-1.7c-0.1-0.3,0-0.5,0.3-0.6c0.2-0.1,0.4-0.1,0.6-0.2c0.4-0.2,0.8-0.4,1.2-0.7
		c0.6-0.5,1.2-1,1.7-1.6c0.3-0.4,0.7-0.8,1-1.3l0.1-0.1c0.1-0.2,0-0.4-0.2-0.4c-0.1,0-0.2-0.1-0.3-0.1c-0.5-0.1-0.9-0.2-1.4-0.3
		c-0.3-0.1-0.6-0.2-0.9-0.3c-0.4-0.1-0.8-0.3-1.1-0.4c-0.4-0.1-0.7-0.3-1.1-0.4c-0.5-0.2-1-0.4-1.4-0.7c-0.3-0.1-0.5-0.3-0.8-0.5
		c-0.1-0.1-0.3-0.2-0.4-0.3c-0.9-0.5-1.7-1.1-2.4-1.7c-0.9-0.7-1.8-1.5-2.6-2.4c-0.5-0.5-0.9-1-1.3-1.5c-0.3-0.3-0.5-0.6-0.8-1
		c-0.4-0.6-0.9-1.2-1.3-1.9c-0.3-0.5-0.6-1-0.9-1.6c-0.2-0.4-0.5-0.9-0.7-1.3C8.1,21,7.8,20.5,7.6,20s-0.3-1.1-0.5-1.6
		c-0.3-0.8-0.5-1.6-0.6-2.4c-0.1-0.7-0.3-1.3-0.4-2C6,13.6,6,13.1,6,12.7c0-0.6-0.1-1.3,0-1.9c0-0.7,0.1-1.4,0.1-2.1
		C6.2,7.8,6.4,7,6.5,6.2c0.1-0.4,0.1-0.7,0.3-1.1c0.1-0.2,0.1-0.3,0.3-0.4C6.9,4.4,7,4.4,7.2,4.3C7.4,4.2,7.7,4,8,3.9
		c0.5-0.2,1-0.3,1.5-0.4c0.2-0.1,0.4-0.1,0.6-0.1c0.5-0.1,1-0.2,1.6-0.2c0.3,0,0.5-0.1,0.8-0.1C13.2,3,13.9,3,14.7,3L14.7,3z
		 M49.8,19.4c0-0.7-0.1-1.4-0.1-2.2c-0.1-0.8-0.3-1.5-0.5-2.2c-0.3-0.8-0.6-1.6-1-2.4c-0.1-0.2-0.2-0.3-0.3-0.5
		c-0.2-0.3-0.4-0.7-0.6-1c-0.3-0.4-0.6-0.8-0.9-1.2c-0.2-0.3-0.5-0.5-0.7-0.8c-0.2-0.2-0.3-0.2-0.5-0.1c-0.1,0-0.1,0.1-0.2,0.1
		c-0.7,0.3-1.3,0.8-2,1.2c-0.4,0.3-0.7,0.6-1.1,0.9c-0.7,0.6-1.3,1.2-1.8,1.9c-0.1,0.1-0.2,0.2-0.3,0.4c-0.2,0.3-0.4,0.7-0.6,1
		c-0.3,0.5-0.6,1-0.8,1.5c0,0.1-0.1,0.2-0.1,0.3c-0.2,0.5-0.4,1-0.5,1.6c-0.1,0.4-0.2,0.9-0.3,1.4c-0.1,0.8-0.2,1.6-0.2,2.5
		c0,0.4-0.1,0.5-0.5,0.5c-0.9,0-1.8,0-2.8,0h-0.1c-0.2,0-0.3-0.1-0.4-0.3c0-0.1,0-0.3,0-0.4c0-0.4,0-0.7-0.1-1.1
		c-0.1-0.5-0.1-1-0.2-1.5c-0.1-0.7-0.3-1.3-0.5-2c0-0.1-0.1-0.2-0.1-0.3c-0.2-0.4-0.4-0.9-0.6-1.3c-0.1-0.2-0.2-0.4-0.3-0.6
		c-0.2-0.3-0.4-0.7-0.6-1c-0.3-0.5-0.7-1-1.1-1.4c-0.4-0.5-0.9-0.9-1.3-1.3c-0.5-0.5-1.1-0.8-1.7-1.2l0,0c-0.4-0.2-0.8-0.4-1.2-0.6
		c-0.2-0.1-0.4-0.1-0.6,0.1c-0.3,0.3-0.5,0.5-0.7,0.8c-0.3,0.4-0.6,0.8-0.9,1.1c-0.2,0.3-0.5,0.7-0.7,1.1c-0.2,0.3-0.3,0.6-0.4,0.9
		c-0.1,0.3-0.3,0.5-0.4,0.8c-0.2,0.4-0.3,0.9-0.4,1.3c-0.2,0.6-0.4,1.3-0.5,2c0,0.5-0.1,0.9-0.1,1.4c-0.1,1,0,2,0.1,3
		c0.1,0.9,0.4,1.7,0.6,2.5c0.1,0.3,0.2,0.5,0.3,0.8c0,0,0,0.1,0.1,0.1c0.1,0.3,0.3,0.5,0.4,0.8s0.3,0.6,0.5,0.9
		c0.1,0.2,0.3,0.4,0.4,0.6c0.2,0.3,0.4,0.6,0.6,0.8c0.5,0.7,1.1,1.3,1.7,1.9c0.8,0.7,1.7,1.3,2.6,1.8c0.4,0.2,0.7,0.4,1.1,0.6
		c0.3,0.2,0.7,0.5,1,0.8c0.2,0.2,0.5,0.5,0.7,0.7c0.2,0.3,0.4,0.6,0.6,0.9c0.3,0.4,0.5,1,0.7,1.4c0.1,0.2,0.2,0.5,0.3,0.7
		c0.2,0.7,0.3,1.3,0.5,2c0.1,0.3,0.1,0.7,0.1,1c0,0.5,0.1,1.1,0.1,1.6c0,0.8,0,1.6-0.1,2.4c0,0.2,0,0.4-0.1,0.6
		c-0.1,0.5-0.2,1-0.3,1.5s-0.2,1.1-0.4,1.6s-0.4,1.1-0.6,1.6c0,0.1-0.1,0.2-0.1,0.3c-0.2,0.4-0.4,0.8-0.6,1.2
		c-0.2,0.5-0.5,0.9-0.7,1.4c-0.3,0.5-0.6,0.9-0.9,1.4c-0.2,0.2-0.3,0.4-0.4,0.6c-0.4,0.5-0.8,0.9-1.2,1.4c-0.5,0.6-1.1,1.2-1.8,1.7
		c-0.6,0.5-1.3,1-1.9,1.5c-0.3,0.2-0.6,0.4-0.9,0.6c-0.5,0.3-1,0.6-1.5,0.8c-0.2,0.1-0.3,0.2-0.5,0.3c-0.4,0.2-0.7,0.4-1.1,0.5
		c-0.5,0.2-1,0.4-1.6,0.6c-0.2,0.1-0.5,0.2-0.8,0.3c-0.1,0-0.2,0.1-0.3,0.1c-0.2,0.1-0.3,0.2-0.2,0.4c0,0.1,0,0.2,0,0.3
		c0.1,0.4,0.1,0.7,0.2,1.1c0,0.3,0.2,0.4,0.4,0.3c0.2,0,0.4-0.1,0.6-0.2c0.1,0,0.3-0.1,0.4-0.1c0.7-0.2,1.4-0.5,2.1-0.8
		c0.3-0.1,0.7-0.2,1-0.4c0.5-0.2,0.9-0.4,1.4-0.7c0.2-0.1,0.3-0.1,0.5-0.2c0.4-0.2,0.8-0.4,1.2-0.6c0.4-0.2,0.8-0.4,1.1-0.7
		c0.3-0.2,0.6-0.4,0.9-0.6c0.2-0.1,0.4-0.3,0.6-0.5c0.5-0.4,1-0.7,1.4-1.1c0.4-0.3,0.7-0.6,1-0.9c0.8-0.7,1.4-1.4,2-2.2
		c0.3-0.4,0.6-0.9,1-1.3c0.4-0.5,0.7-1.1,1.1-1.7c0.3-0.5,0.6-1.1,0.8-1.6s0.5-1,0.7-1.6c0.2-0.5,0.4-1,0.5-1.5v-0.1
		c0.1-0.3,0.2-0.6,0.3-0.9c0.1-0.3,0.1-0.5,0.2-0.8c0.2-0.7,0.4-1.5,0.5-2.3c0.2-1.2,0.4-2.4,0.6-3.6c0.1-0.6,0.2-1.2,0.3-1.8
		c0.1-0.4,0.1-0.9,0.2-1.3c0.2-0.7,0.4-1.3,0.6-2c0.2-0.5,0.4-0.9,0.8-1.3c0.3-0.3,0.5-0.6,0.9-0.8c0.3-0.2,0.7-0.3,1-0.5
		c0.4-0.2,0.7-0.4,1.1-0.6c0.3-0.2,0.6-0.4,0.9-0.7c0.5-0.4,1-0.8,1.5-1.2c0.3-0.3,0.5-0.6,0.8-0.8c0.5-0.5,0.8-1,1.2-1.6
		c0.3-0.5,0.6-1,0.9-1.5c0-0.1,0.1-0.1,0.1-0.2c0.2-0.4,0.3-0.8,0.5-1.3c0.3-0.8,0.5-1.5,0.7-2.3C49.7,21.1,49.8,20.3,49.8,19.4z
		 M14.4,6.7L14.4,6.7c-0.8,0-1.7,0-2.5,0.1c-0.5,0-1.1,0.1-1.6,0.2C9.9,7.1,9.7,7.3,9.7,7.7c0,0.2,0,0.4-0.1,0.6
		C9.4,9,9.4,9.7,9.4,10.5c0,0.6,0,1.1,0,1.7c0,0.2,0,0.4,0.1,0.6c0.2,0.9,0.2,1.9,0.5,2.8c0,0.2,0.1,0.3,0.1,0.5
		c0.2,0.9,0.6,1.8,0.9,2.7c0.2,0.6,0.5,1.2,0.8,1.8c0.1,0.1,0.1,0.2,0.2,0.4c0.2,0.3,0.3,0.6,0.5,0.8c0.2,0.3,0.3,0.5,0.5,0.8
		c0.4,0.6,0.8,1.2,1.2,1.7c0.5,0.6,1,1.2,1.6,1.8c0.3,0.3,0.5,0.5,0.8,0.8c0.4,0.4,0.8,0.7,1.2,1c0.3,0.3,0.7,0.6,1.1,0.8
		c0.1,0.1,0.2,0.1,0.3,0.2c0.3,0.2,0.6,0.4,1,0.6c0.1,0,0.2,0.1,0.2,0.1c0.1,0,0.2-0.1,0.1-0.2s-0.1-0.3-0.2-0.4
		c-0.2-0.4-0.5-0.7-0.7-1.1c-0.2-0.3-0.3-0.6-0.5-0.9c-0.1-0.1-0.1-0.3-0.2-0.4c-0.2-0.5-0.4-0.9-0.6-1.4c-0.2-0.4-0.3-0.9-0.4-1.3
		c0-0.1-0.1-0.2-0.1-0.3c-0.1-0.3-0.1-0.5-0.2-0.8c-0.2-0.8-0.3-1.6-0.3-2.5c0-0.7,0-1.4,0-2.1c0-0.4,0-0.9,0.1-1.3
		c0.1-0.7,0.2-1.3,0.4-2c0-0.1,0-0.2,0.1-0.2c0.1-0.2,0.1-0.4,0.2-0.6c0.1-0.3,0.2-0.7,0.3-1c0.1-0.4,0.3-0.8,0.5-1.2
		c0.3-0.6,0.5-1.1,0.8-1.7c0.4-0.7,0.9-1.4,1.3-2c0.1-0.1,0.1-0.2,0.2-0.3c0.1-0.2,0.1-0.4-0.2-0.4c-0.3-0.1-0.6-0.2-0.8-0.2
		C19.7,7.2,19,7,18.3,6.9c-0.9-0.1-1.8-0.2-2.7-0.2C15.2,6.7,14.8,6.7,14.4,6.7z M56.4,6.8C56.4,6.8,56.4,6.7,56.4,6.8
		c-0.9,0-1.7,0-2.6,0.1c-0.6,0-1.2,0.1-1.8,0.2c-0.5,0.1-1,0.2-1.4,0.3c-0.3,0.1-0.6,0.2-0.9,0.3c-0.2,0.1-0.3,0.2-0.1,0.4
		c0.1,0.1,0.1,0.2,0.2,0.3c0.3,0.4,0.6,0.8,0.9,1.3c0,0.1,0.1,0.1,0.1,0.2c0.3,0.4,0.6,0.9,0.8,1.4c0,0.1,0.1,0.1,0.1,0.2
		c0.2,0.3,0.3,0.6,0.5,0.9c0.3,0.7,0.6,1.5,0.8,2.3c0.2,0.5,0.2,1.1,0.3,1.6c0.2,1,0.3,2,0.3,3c0,0.6,0,1.1,0,1.7c0,0.1,0,0.1,0,0.2
		c-0.1,0.4-0.1,0.8-0.2,1.1c-0.1,0.6-0.2,1.2-0.4,1.8c-0.2,0.7-0.5,1.4-0.7,2.1c-0.1,0.2-0.1,0.4-0.2,0.6c-0.2,0.4-0.4,0.7-0.6,1.1
		c-0.2,0.4-0.4,0.8-0.7,1.2c-0.1,0.2-0.2,0.3-0.3,0.5s0,0.3,0.2,0.2c0.1,0,0.1,0,0.2-0.1c0.6-0.4,1.2-0.8,1.7-1.2
		c0.6-0.4,1.1-0.9,1.7-1.4c0.7-0.7,1.4-1.4,2-2.2c0.4-0.5,0.8-1,1.2-1.6c0.2-0.3,0.4-0.6,0.6-0.9c0.3-0.4,0.5-0.8,0.8-1.3
		c0-0.1,0.1-0.2,0.1-0.2c0.3-0.4,0.5-0.9,0.7-1.4c0.1-0.1,0.1-0.3,0.2-0.4c0.2-0.5,0.4-0.9,0.6-1.4c0.1-0.3,0.2-0.6,0.3-0.9
		c0.2-0.6,0.3-1.2,0.5-1.9c0.1-0.5,0.2-1.1,0.2-1.6s0.1-1.1,0.1-1.6c0-0.8,0-1.6-0.1-2.3c0-0.4-0.1-0.9-0.1-1.3
		c-0.1-0.5-0.1-0.7-0.8-0.8c-0.9-0.2-1.9-0.2-2.8-0.3C57.2,6.8,56.8,6.8,56.4,6.8z M35.4,5c-0.8,0-1.5,0-2.3,0.1
		c-0.5,0.1-1,0.2-1.5,0.4c-0.6,0.2-1.2,0.4-1.8,0.6c-0.2,0.1-0.4,0.2-0.6,0.3c-0.2,0.1-0.2,0.2,0,0.4c0.1,0.1,0.1,0.1,0.2,0.2
		c0.2,0.2,0.5,0.3,0.7,0.5c0.4,0.3,0.9,0.7,1.3,1c0.5,0.5,1.1,1,1.6,1.5c0.4,0.4,0.8,0.9,1.1,1.4c0.2,0.3,0.5,0.7,0.7,1
		s0.3,0.6,0.5,0.9c0.1,0.2,0.3,0.2,0.4,0c0,0,0-0.1,0.1-0.1c0.2-0.4,0.5-0.8,0.7-1.2c0.2-0.3,0.4-0.6,0.6-0.9
		c0.2-0.2,0.4-0.4,0.5-0.7c0.2-0.3,0.5-0.6,0.7-0.8c0.4-0.4,0.7-0.7,1.1-1c0.4-0.4,0.9-0.7,1.3-1.1C41,7.2,41.4,7,41.8,6.8
		c0.2-0.1,0.2-0.3,0-0.4s-0.3-0.2-0.5-0.2C40.6,6,40,5.7,39.4,5.5c-0.1,0-0.3-0.1-0.4-0.1c-0.4-0.1-0.8-0.2-1.2-0.3
		C37,5,36.2,5,35.4,5z"/>
</g>
</svg>
